<?xml version="1.0" encoding="utf-8"?>
<!-- Generator: Adobe Illustrator 13.0.2, SVG Export Plug-In . SVG Version: 6.00 Build 14948)  -->
<!DOCTYPE svg PUBLIC "-//W3C//DTD SVG 1.0//EN" "http://www.w3.org/TR/2001/REC-SVG-20010904/DTD/svg10.dtd">
<svg version="1.0"
     xmlns="http://www.w3.org/2000/svg"
     xmlns:xlink="http://www.w3.org/1999/xlink"
     viewBox="-10 -10 446 231"
     preserveAspectRatio="xMidYMid">
	<style>
		path:hover {
  		fill: yellow;
	  	transition: all .3s;
		}
		path {
	  	transition: all .3s;
		}
	</style>
  <symbol id="map">
    <path fill="#8D6013" d="M143.079,132.525c0,0-1.91-0.398-1.993-0.637c-0.079-0.238-3.346-3.106-3.421-3.026c-0.085,0.078-1.359-1.28-1.519-0.877
                           c-0.156,0.398-2.628,0.398-2.628,0.398l-2.629-0.642c0,0-1.112,0.802-0.875,0.479c0.239-0.318,0.079-2.229,0-1.908
                           c-0.079,0.315-3.985-1.675-3.985-1.675l-1.357,1.195v-1.514l-2.066-1.273l0.241-1.674l-0.963-0.797c0,0-0.155,0.238-0.235,0.08
                           c-0.079-0.158-0.638-3.345-0.638-3.345l-3.03-2.471l-3.661-0.16l-3.348-1.837l-0.717-1.67c0,0-1.913-0.873-1.913-1.113
                           c0-0.238-0.552-0.078-0.716-0.161c-0.155-0.077-0.075-0.872-0.075-0.872l-0.883-0.722l-0.315-0.214l-0.779-0.236l-0.477-0.666
                           c0,0,1.733-0.774,1.554-0.712c-0.175,0.056-3.881,0.593-3.881,0.593l-0.358,0.715l-1.734-0.894l-2.927-0.181
                           c0,0-2.095-0.834-2.035-1.072c0.063-0.24-0.656-1.136-0.656-1.136s-0.478,1.136-0.598,1.255c-0.118,0.119-1.61,1.374-1.61,1.374
                           l0.115,1.915l-1.014-1.08l0.719-1.016c0,0,0-1.253,0-1.432c0-0.183,0.896-0.598,0.896-0.598l-0.359-0.774
                           c0,0-1.073,0.298-1.073,0.478c0,0.178-1.434,1.014-1.434,1.014l-1.735,0.656h-0.776c0,0-0.775,1.252-0.96,1.315
                           c-0.177,0.061-0.113,1.198-0.113,1.198s-1.917,2.146-2.037,1.908c-0.119-0.238-2.146-1.908-2.146-1.908l-2.395,0.294l-1.372,0.72
                           l-1.674-1.136l-1.313-2.031l0.123-2.389l0.715-2.633l0.298-1.729l-1.793-1.318c0,0-3.644,0.299-3.644,0.12
                           c0-0.176-1.975,0.063-1.913-0.12c0.057-0.177,0.717-1.312,0.717-1.494c0-0.18,0.48-1.552,0.48-1.552l0.777-1.552l1.015-2.982
                           l0.595-1.021l-2.985-0.178l-1.794,0.716l-1.015,2.99l-5.08,1.373l-1.254-0.955c0,0-0.12,0.538-0.056,0.239
                           c0.056-0.298-1.555-2.393-1.555-2.393l-0.778-2.924c0,0,2.034-6.039,1.97-5.916c-0.059,0.117,0.064-2.215,0.064-2.215l6.392-4.18
                           l2.447,0.358l0.597,0.597l1.497-0.243l1.493-1.491L75.403,76l1.85-0.357l1.138,1.256l1.669-0.656l0.897,0.958l0.542,0.593v1.019
                           l-0.418,0.954l0.418,2.152l1.194,1.675l0.776,0.297l0.956-2.628l-0.181-2.45l-0.417-1.977v-1.433l2.452-2.981l3.163-2.274
                           l2.51-1.434l2.211-2.389l-0.119-2.271l0.961-0.177l0.947-2.03l0.957,0.112l1.856-2.328l3.103-1.072l1.916-0.357l0.598-0.657
                           l-0.717-0.597l1.492-2.215l4.722-1.852l2.87-0.836l-2.334,1.495l0.478,1.133l1.733-0.477l1.256-0.775l3.285-0.895
                           c0,0,0.781-1.317,0.658-1.018c-0.115,0.298,1.675-0.299,1.675-0.299l-0.357-0.719l0.119-0.955l-0.954,0.359l-1.441,1.553
                           l-2.327-0.114l-1.073-1.617l1.015-1.374c0,0,1.014-2.032,0.955-1.909c-0.061,0.116-1.611-0.48-1.611-0.48l-2.332,0.833
                           c-0.238,0-2.449,1.316-2.391,1.138c0.061-0.179-1.136,0.657-1.136,0.657l3.046-2.446l1.257-0.182l1.435-1.317h6.871l2.331-0.479
                           l3.105-1.671l0.243,0.3l-1.316,1.252l-1.614,1.674l-1.557,1.67l-0.775,1.018l2.45,0.119c0,0,1.91,0.048,2.092,0
                           c0.239-0.06,0.298,0.835,0.298,0.835l1.014-0.716l0.541,1.374l1.794-1.374l-0.541-1.554l0.481-1.437l-2.092,0.064v-0.778
                           c0,0-0.775-0.896-0.836-0.778c-0.062,0.121,1.194-1.013,1.133-0.894c-0.059,0.12-0.54-0.596-0.54-0.596l1.439-1.798l-0.716-2.028
                           l-0.243-1.013l-1.853-0.897l-0.656-0.898l-0.839-0.656l0.66-1.555l-0.3-1.134c0,0-0.535-3.706-0.595-3.588
                           c-0.063,0.121-2.514,2.034-2.514,2.034l-2.505,1.257l-1.319-1.136l0.124-1.498l1.135-1.074l-1.856-0.597l-0.119-0.478
                           c0,0-1.672-1.673-1.79-1.555c-0.12,0.124-0.538,0.542-0.538,0.542l-3.945-0.364l-1.373,2.392l-0.298,1.254
                           c0,0-2.161,2.162-2.425,2.329c0.158-0.046,1.169,0.96,1.169,0.96l-0.899,2.147l-3.405,1.972l-1.67,0.242
                           c0,0-1.018,3.707-0.958,3.944c0.059,0.241-1.373,0.894-1.373,0.894l-1.016,0.718l-0.42-1.312c0,0-0.458-1.004-0.64-1.258
                           c0.267,0.11,1.237,0.239,1.237,0.239l0.182-0.839l-0.958,0.062l0.42-1.375l0.896-1.491l-3.109-0.24l-0.71-0.838l-1.558-0.24
                           l-0.123-0.659l-1.075-0.655l-1.316-0.597l-1.431,0.179l-0.061-1.252L89.8,31.61l-1.431-0.238c0,0,2.51-2.572,2.45-2.452
                           c-0.064,0.119,7.047-3.529,7.047-3.529l0.839-0.892l1.372-0.123l2.987-1.371l2.271-1.553l0.239,0.12l-1.729,1.612l-0.478,0.594
                           l-1.375,0.659l1.256,0.178l-0.183,0.72l1.377-0.24l1.372-1.136l1.08,0.362l0.479,0.533l1.491-0.06l-0.06-1.134l-2.327-1.671
                           l-0.544-0.537l-0.236-0.599l1.012,0.124l0.843,0.716l0.894-0.9l1.792-0.235l1.792-1.26l-0.116-0.775l1.372-1.313l-0.899-0.954
                           l2.392-0.06l2.087,0.06c0,0,1.019-0.477,1.199-0.179c0.18,0.298,1.732,1.431,1.732,1.431l-0.597,0.538l-2.453,0.302l-0.597,1.191
                           l1.797,0.242l1.371-1.433l1.492-0.121l0.24,1.431c0,0-1.671,0.958-1.909,1.017c-0.239,0.064-1.257,0.537-1.257,0.537l-0.06,1.079
                           l-1.613,0.177l-1.672-0.296l-0.775,0.058l-1.257,1.014l1.016,0.896c0,0,1.495-0.597,1.733-0.775s1.015-0.539,1.193-0.238
                           c0.179,0.298,1.192,1.134,1.192,1.134l0.843,1.618l0.776,0.237l2.387,0.776c0,0,1.675,0.419,1.675,0.536
                           c0,0.12-0.175-1.014-0.175-1.014l-1.263-1.495c0,0-0.055-0.418,0.358-0.302c0.423,0.119,1.44,1.013,1.44,1.013
                           c0.176,0.06,1.373,0.783,1.373,0.783l0.477-1.316l1.074-0.658l-0.415-0.777l-0.599-0.655l-0.656-0.777l0.058-0.895
                           c0,0,0.18-0.124,0.359-0.239c0.178-0.118,0.716-0.537,0.837-0.302c0.117,0.239,1.317,1.794,1.317,1.794l1.13,0.237l0.541-0.894
                           c0,0,1.491-0.181,1.491-0.12c0,0.06,0.12-0.716,0.12-0.716l1.376-0.357L130.193,19l-1.074-0.539l-0.84,0.24l-0.771-0.896
                           l0.834-0.774l0.361-1.078l-0.957-0.955l-1.494-0.298l-0.362-0.78c0,0-1.252-0.178-1.432-0.061c-0.181,0.124-1.076-1.073-1.076-1.073
                           l-0.777-1.014c-0.121-0.061-0.538-0.482-0.776-0.419c-0.243,0.06-2.749,0.119-2.749,0.119l-0.597,0.18l-0.775-0.6l-3.11,0.779
                           l-1.611,1.255c0,0-0.118-0.718,0-0.896c0.116-0.179,1.252-0.836,1.432-0.955c0.179-0.119-1.373-0.182-1.373-0.182
                           s-2.87,0.958-2.989,1.137c-0.119,0.178-2.331,1.91-2.331,1.91l0.064,1.435l2.029,0.301l0.776,0.175l-0.538,0.481l-0.417,0.895
                           l-1.313,0.717l-1.617,1.193l-1.374,0.537l-0.237-0.954l1.194-0.717c0,0-0.239-1.491-0.359-1.373c-0.119,0.12-1.372-0.059-1.433,0.12
                           c-0.058,0.18,0.061-1.133,0.061-1.133l-0.061-1.257l-0.298-0.959c0,0,1.017-0.835,1.193-0.894c0.18-0.06,2.092-0.18,2.092-0.18
                           l3.048-1.732l-2.511-0.117c0,0-2.327,0.057-2.449,0.299c-0.12,0.239-1.67,1.85-1.67,1.85l-0.957,0.717l-3.167,1.975l-0.121,1.372
                           l-1.313-0.238l-0.954-0.18l-2.387,0.955v1.314l-4.369,0.242c0,0-2.088-0.302-2.088-0.597c0-0.302-0.776-0.898-1.014-0.898
                           c-0.243,0-2.931,0.836-2.931,0.836l-0.119,0.835l-3.107-0.176c0,0-2.568,0.474-2.508,0.238c0.06-0.238-1.376-0.121-1.376-0.121
                           l2.151-0.956l-1.491-0.717l-2.693-0.417l-1.91-0.597l-2.147,0.299l-0.239-0.895l-1.916,0.774l-0.538-1.255l-1.313,0.599
                           c0,0-4.899,1.015-5.139,1.074c-0.237,0.061-1.431-0.478-1.431-0.478l-1.499,0.716l-2.864,0.179l-1.138-0.835l-2.329-0.477
                           l-2.57,0.119l-4.783-0.779c0,0-2.746-0.418-2.567-0.481c0.179-0.06-1.491-0.478-1.491-0.478s0.067-0.199,0.119-0.315
                           c-0.586,0.248-5.258,1.031-5.258,1.031l-6.272,2.035l-4.124,0.835c0,0,0.119,1.075,0.177,1.253c0.061,0.183,0.419,1.375,0.419,1.375
                           l-1.134,0.239h-1.2l0.603-0.835l-6.101,1.672l0.125,0.657l-0.421,0.777l1.912,0.179l1.615,0.179c0,0,0.896-0.536,0.896-0.357
                           s-0.478,1.55-0.478,1.55l-1.851,0.12c-0.119-0.179-1.077,0.063-1.077,0.063s-1.257,0.771-1.316,0.597
                           c-0.06-0.179-2.506,0.418-2.506,0.418l-2.812,1.614l-1.073,1.612l-0.119,1.193l2.091-0.355l-1.197,1.615l1.375-0.063
                           c0,0,1.615,0,1.734,0.243c0.121,0.239,0.835,0.12,0.835,0.239c0,0.121-14.22,5.616-14.341,5.438C2.089,37.282,0,38.419,0,38.419
                           s2.745-0.477,2.928-0.477c0.178,0,4.239-0.958,4.239-0.958l1.913-0.538c0,0,4.124-1.194,4.179-1.374
                           c0.061-0.181,2.931-1.674,3.11-1.674c0.18,0,1.135-0.417,1.197-0.177c0.057,0.238,4.122-1.073,4.122-1.073s1.432-1.019,1.316-1.198
                           c-0.124-0.179-0.958-0.657-0.719-0.715c0.238-0.061,2.386-0.362,2.386-0.362s3.229-1.312,3.17-1.135
                           c-0.06,0.181-3.286,2.334-3.286,2.334l4.602-0.898l1.854-0.779c0,0,1.552-0.716,1.433-0.536c-0.12,0.179,1.793,0.715,1.793,0.894
                           s4.001,0.779,4.001,0.779l1.196,1.793l-0.242,2.328l-0.118,2.931l2.15-0.24l-0.535,1.911l0.123,3.169c0,0,0.115,1.134,0.115,1.313
                           c0,0.179-1.673-0.357-1.673-0.357s-0.24,1.373-0.061,1.551c0.186,0.179,2.155,2.151,2.155,2.151l-0.658,0.838l-1.497,3.704
                           l-3.525,4.061l-0.595,2.216l-1.734,1.909l0.299,1.375c0,0-0.478,0.958-0.354,1.076c0.115,0.118,0.834,6.632,0.834,6.632l2.511,1.552
                           l0.655,1.196l0.359,4.899l1.073,2.21l-1.193,0.837l1.373,1.908l0.539,0.063l1.079,1.252l-0.421,1.675l1.133,0.895l1.078,1.674
                           l0.18,0.835l1.017-1.014l-1.017-2.091c0,0-0.717-1.557-0.657-1.911c0.06-0.36-0.954-3.049-0.954-3.049s-0.961-2.033-0.838-2.211
                           c0.116-0.181-0.721-1.372-0.721-1.372l0.421-2.449l1.733,0.358c0,0,0.299,2.266,0.299,2.509c0,0.238,0.419,1.673,0.419,1.673
                           l2.269,3.162l-0.356,1.616l4.359,5.197l-0.06,2.093l-0.658,1.013l0.358,1.437l3.647,2.688l0.596-0.118l1.074,1.076l3.942,1.973
                           l1.973,0.479l2.334-0.719l1.492,0.719l2.271,2.628l2.33,0.595l2.387,0.84h1.141l0.299,1.371c0,0,1.075,1.376,1.314,1.555
                           c0.237,0.179,0.06,1.734,0.06,1.734l1.014,0.534l1.196,1.257l0.776,0.72l0.839,0.954l0.536-0.358l1.076,0.297l1.55,1.437
                           l1.016-0.601l-0.292-1.133l0.948-0.955h0.839l0.898,0.715l-0.061,0.837l1.075,1.732l0.061,4.84l-0.956,1.556l-1.317,0.896
                           l-0.056,1.43l-1.377,0.537l-0.537,1.913l-0.838,1.674l0.179,1.432l1.197,1.076l-1.078,1.141l-0.774,1.132L79.583,133
                           c0,0,0.357,1.138,0.357,1.017c0-0.119,1.141,0.781,1.141,0.781l2.09,4.177l2.028,2.933c0,0,2.951,5.947,3.011,5.994
                           c0.891,0.655,7.393,5.338,7.393,5.338l1.109,5.815l0.324,12.267l0.954,3.51l-0.402,7.091l-0.315,1.432c0,0,1.273,2.23,1.273,2.552
                           c0,0.318,0.238,3.103,0.238,3.103l0.875,3.028l1.035-0.078l-0.637-1.752l0.799,0.08l0.553,2.786l0.079,1.113l-0.632-0.557
                           l-0.56,0.557l-0.399,0.48l0.797,0.72l-0.397,1.108l-0.158,1.438l1.115,0.16l0.796,0.636l-0.796,1.354c0,0,4.936,8.684,9.08,9.717
                           c4.144,1.04,5.338,1.356,5.338,1.356l1.756-0.957l0.551-0.715l-3.661-1.274l-2.788-3.032l-0.56-1.59l0.876-0.635l-0.157-1.198
                           c0,0,0-0.875,0.314-1.113c0.322-0.238,0.958-1.434,0.958-1.434l-0.958-0.479l-1.591-1.591l0.159-1.837l0.958-0.553
                           c0,0,0.077-1.039-0.08-1.277c-0.163-0.236,0.239-1.435,0.478-1.513c0.241-0.082,0.872-1.039,0.872-1.039h-1.11l-0.636-0.236
                           l-0.8-1.271v-0.96l1.354,0.398l1.279-0.24l0.716-1.035c0,0-0.239-0.636-0.318-0.874c-0.08-0.238,0.159-1.276,0.397-1.356
                           c0.238-0.075,1.671,0.08,1.671,0.08l2.71-0.715c0,0,1.037-1.835,0.958-2.153c-0.08-0.318-0.08-1.354-0.08-1.354s0-0.715-0.636-0.8
                           c-0.641-0.077-0.641-0.312-0.8-0.957c-0.162-0.635-0.641-1.352-0.641-1.352l-0.794,0.16l0.719-0.715l1.593,1.191l2.388,0.403
                           l1.834-1.835l1.276-3.108l0.556-2.311h1.193l1.273-2.31l0.481-2.15l-0.398-2.632l0.557-0.951l4.141-2.789l3.11-1.037l1.04-0.8
                           c0,0,1.588-2.148,1.588-2.387s0.639-3.348,0.639-3.348s0.715-3.66,0.633-3.898c-0.077-0.243,0.162-3.428,0-3.508
                           c-0.16-0.078,0.082-0.958,0.082-0.958l3.028-4.3l1.434-3.27c0,0,1.04-1.671,0.879-1.989
                           C143.953,135.233,143.079,132.525,143.079,132.525z"/>
    <path fill="yellow" d="M182.872,40.906l-0.677,0.442l-0.2,0.759l0.598,0.357l0.957,0.199l0.992-0.239l0.842-0.478l0.236-0.238l1.395-0.086l0.159-0.591
                        l0.322-0.6v-1.713l0.756-0.439l-0.243-1.112l-1.192-0.278l-0.955-0.16l-0.636,0.198l-0.365,0.517c0,0-0.59,0.638-0.473,0.515
                        c0.123-0.115,0.437-0.115,0.362,0.083c-0.083,0.198-0.405,0.397-0.405,0.397h-0.47l-0.407-0.239l-0.594,0.079l-0.201,0.359
                        l0.244,0.558l-0.403,0.4l0.478,0.399l0.476,0.115l-0.074,0.56L182.872,40.906z M187.61,36.209c0.28,0.116,0.397,0.279,0.358,0.396
                        c-0.035,0.124,0.598,0.202,0.598,0.202l0.52-0.118l-0.358,0.557c0,0,0.078,0.359,0.196,0.519c0.123,0.159,0.522,0,0.522,0
                        s0.957-0.16,1.077-0.12c0.116,0.038-0.043,0.398-0.043,0.398l0.362,0.556c0,0,0.195,0.798,0.235,1.035
                        c0.043,0.243-0.319,0.158-0.319,0.158s-0.75,0.119-0.917,0.084c-0.159-0.04-0.474,0.275-0.752,0.592
                        c-0.281,0.325,0.04,0.202,0.04,0.202h0.592c0,0,0.047,0.396,0.084,0.561c0.036,0.159-0.479,0.315-0.635,0.275
                        c-0.159-0.038-0.878,0.321-0.878,0.321l0.037,0.598l0.879,0.079l0.878,0.12l0.159,0.278c0,0-0.564,0.12-0.72,0
                        c-0.159-0.119-0.637,0.637-0.637,0.637l-0.437,0.478l-0.92,0.716l0.517,0.24l0.32-0.4l0.801,0.04l0.87-0.119
                        c0,0,0.523-0.637,0.643-0.637c0.116,0,1.353-0.038,1.353-0.038s0.996-0.2,1.115-0.12s0.917,0.241,1.041,0.279
                        c0.117,0.039,1.67-0.438,1.67-0.438s0.317-0.517,0.396-0.676c0.083-0.159-0.435-0.318-0.554-0.438s0.396-0.278,0.637-0.397
                        c0.237-0.119,0.317-0.559,0.438-0.756c0.115-0.197-0.161-0.601-0.201-0.717c-0.038-0.123-0.597-0.086-0.755-0.123
                        c-0.159-0.041-0.836,0.037-0.836,0.037l0.036-0.796c0,0-1.872-2.548-1.832-2.667c0.04-0.116-0.438-0.876-0.637-0.913
                        c-0.199-0.04-0.439-0.205-0.678-0.523c-0.237-0.316,0.319-0.717,0.319-0.717s0.675-0.716,0.756-0.874
                        c0.08-0.16-0.082-0.637-0.199-0.677c-0.121-0.039-1.511,0.04-1.511,0.04s-0.397-0.318-0.36-0.437
                        c0.041-0.125,0.439-0.162,0.56-0.162c0.113,0,0.835-1.391,0.994-1.431c0.158-0.043-0.121-0.398-0.121-0.398l-0.555,0.232
                        l-0.518,0.762c0,0-0.482,0.119-0.677,0c-0.197-0.12-0.599,0-0.758-0.04c-0.159-0.045-0.523,0.478-0.523,0.478
                        s-0.552,0.597-0.713,0.636c-0.159,0.04-0.717,0.677-0.677,0.716c0.043,0.04,0.079,0.56,0.079,0.56s-0.119,0.196-0.318,0.236
                        c-0.198,0.039,0.158,0.716,0.158,0.716l0.482,0.242c0,0-0.283,0.276-0.441,0.239C187.69,35.648,187.332,36.092,187.61,36.209z"/>
    <path fill="green" d="M374.983,27.567c0-0.033-0.018-0.033-0.052-0.013C374.966,27.58,374.983,27.589,374.983,27.567z M326.073,97.871
                        c0.08-0.119,1.193-0.677,1.232-0.959c0.042-0.273,0.837,2.594,0.837,2.594l0.562,1.99c0,0,0.434,1.432,0.594,1.712
                        c0.16,0.281,0.395,2.112,0.395,2.272c0,0.158,0.524,1.23,0.283,1.352c-0.244,0.119-0.637,0.039-0.561,0.2
                        c0.084,0.157,0.277,1.035,0.277,1.2c0,0.157-0.117,1.229-0.193,1.429c-0.084,0.2-0.119,0.718-0.119,0.953
                        c0,0.241,0.152,0.683,0.152,0.798c0,0.122,0.123,0.32,0.123,0.32s0.162,0.082,0.238-0.12c0.082-0.2,0.678-0.278,0.761-0.2
                        c0.077,0.082,0.992,1.153,1.074,1.476c0.078,0.316,1.074,1.873,1.191,2.031c0.121,0.16,0.641,0.679,0.316,1.115
                        c-0.316,0.438-0.316,0.517-0.273,0.755c0.039,0.238,0.16,1.113,0.555,1.597c0.403,0.475,1.234,1.391,1.234,1.391
                        s1.039,0.722,1.199,0.921c0.156,0.197,1.312,0.316,1.435,0.793c0.114,0.477,0.435,0.959,0.435,0.959s0.914,0.276,0.914,0.399
                        c0-0.099-0.006-1.49-0.116-1.68c-0.117-0.194-1.072-2.148-1.196-2.266c-0.116-0.121-0.315-0.398-0.196-0.911
                        c0.119-0.524-0.081-1.879-0.081-1.879l-1.872-2.232c0,0-1.634-1.594-1.673-1.512c-0.039,0.078-1.277-0.479-1.229-0.957
                        c0.032-0.477-0.129-1.67-0.486-1.95c-0.354-0.277-0.673-0.719-0.952-0.877c-0.277-0.163-0.078-1.675,0-1.874
                        c0.077-0.199,0.715-1.949,0.678-2.066c-0.044-0.119,0.158-1.752,0.158-1.752s0.516-0.684,0.635-0.443
                        c0.123,0.238,0.678,0,0.518,0.717c-0.158,0.722-0.076,1.16-0.076,1.16l1.43-0.282l0.999,1.038l0.719,0.953l0.915,0.559
                        c0,0,0.238,1.077,0.357,1.152c0.122,0.083,0.718-0.238,0.718-0.238l0.916,0.642c0,0-0.52,0.953-0.396,1.196
                        c0.117,0.238,0.233,1.072,0.233,1.072l0.88-0.718l1.118-0.836l0.557-0.797l0.199-0.596l1.59-0.681l1.515-1.393l-0.037-2.949
                        l-0.479-1.83l-1.354-1.913l-2.632-2.627l-1.031-1.274c0,0-0.719-0.916-0.682-1.153c0.041-0.243,0.196-1.514,0.196-1.514l0.722-0.679
                        l1.396-1.394c0,0,0.955-0.637,1.115-0.479c0.158,0.16,1.432,0.12,1.473,0.238c0.037,0.12,0.204,0.082,0.117,0.318
                        c-0.08,0.238,0.039,1.316,0.158,1.436c0.123,0.12,0.403,0.236,0.522,0.278c0.112,0.038,0.516-0.121,0.557-0.359
                        c0.041-0.237-0.041-1.075,0-1.275c0.041-0.198,0.119-0.198,0.24-0.238c0.119-0.04,0.713,0,0.713,0l0.641-0.637l1.113,0.398
                        l1.195-1.038c0,0,0.639-0.116,0.719-0.038c0.078,0.083,1.118-0.795,1.118-0.795l1.074-0.24l0.953-0.399c0,0,0.398-0.917,0.398-0.799
                        c0,0.121,2.313-2.307,2.313-2.307l0.756-1.873l0.914-2.668l0.557-3.31l0.042-0.954c0,0-0.878,0.715-0.995,0.758
                        c-0.121,0.037-0.836-0.158-0.836-0.158l0.555-0.998c0,0,0.32-0.716,0.16-0.756c-0.16-0.041-0.957-0.278-0.957-0.278
                        s0.343-0.784,0.394-0.835c-0.073,0-1.386-1.356-1.386-1.356s-1.755-2.509-1.835-2.312c-0.08,0.2-1.432-0.954-1.556-0.954
                        c-0.114,0-0.196,0.039-0.274-0.198c-0.08-0.24,1.195-1.913,1.234-2.037c0.039-0.115,1.152-1.353,1.356-1.312
                        c0.194,0.04,0.873,0.079,0.873,0.079s-0.163-0.795-0.28-0.835c-0.116-0.039-2.824-0.278-2.824-0.278s-1.074,0.637-1.115,0.796
                        c-0.046,0.159-0.914,0.081-0.914,0.081l-0.122-0.917l-1.081-0.517l-1.231-0.438l0.042-0.837c0,0,0.753-0.277,0.874-0.363
                        c0.119-0.08,1.074-0.553,1.152-0.955c0.08-0.399,0.719-1.035,0.801-1.155c0.078-0.119,0.594-0.557,0.711-0.477
                        c0.123,0.079,0.884,0.637,0.799,0.677c-0.075,0.039-0.593,0.878-0.479,1.113c0.124,0.243,0.681,0.961,0.603,1.078
                        c-0.078,0.122-0.32,0.56-0.32,0.56l0.598-0.08c0,0,0.756-0.597,0.715-0.676c-0.039-0.086,0.598-0.758,0.717-0.758
                        s1.437-0.283,1.471-0.164c0.043,0.121,1.358,0.438,1.358,0.438l0.24,2.394c0,0,3.187,0.756,3.187,0.956
                        c0,0.198-0.36,0.515-0.36,0.515s-0.04,0.638,0.12,0.72c0.158,0.076,0.675,0.515,0.797,0.677c0.124,0.159,0.36,1.237,0.36,1.237
                        s-0.436,0.954-0.36,1.074c0.078,0.121,0.876,0.836,0.876,0.836l2.272-0.876c0,0,1.232-0.955,1.232-1.074
                        c0-0.122-1.312-3.308-1.312-3.308l-3.03-2.076l-1.31-1.074l1.83-1.79l-0.16-1.552c0,0,0.398-1.519,0.478-1.519
                        c0.084,0,1.196-0.794,1.196-0.794l1.273,0.881l1.913-1.198l1.076-3.86l0.039-5.023l-1.713-3.066c0,0-0.795-1.872-0.919-1.872
                        c-0.119,0-1.271-1.796-1.271-1.796l-2.669-1.192l-1.158-0.04l-0.714,1.193l-0.754-0.915l-1.036-1.83l0.117,1.114
                        c0,0,0.16,0.716,0.112,0.875c-0.03,0.159-0.792-0.996-0.792-0.996s-1.274-0.237-1.353-0.237c-0.077,0-0.717-0.362-0.717-0.362
                        s1.879-2.185,1.716-2.107c-0.158,0.078,0.318-2.788,0.318-2.788s0.676-1.357,0.715-1.277c0.041,0.081,2.625-0.278,2.625-0.278
                        s4.741-0.077,4.702,0c-0.039,0.083,2.313-0.156,2.313-0.156s0.076,0.677,0.282,0.757c0.194,0.078,2.105-0.043,2.105-0.043
                        l1.395-0.317l0.674-0.082c0,0-0.834-0.835-0.955-0.835c-0.119,0-0.914-0.361-0.992-0.401c-0.083-0.04,0.596-1.55,0.555-1.79
                        c-0.037-0.24-0.117-1.075,0.199-0.995c0.318,0.081,2.474,0.081,2.474,0.081s0.872,0.833,0.872,1.073
                        c0,0.238,1.395,1.074,1.395,1.074s0.759-0.836,0.836-0.994c0.067-0.127,0.47-0.576,0.624-0.65c-0.192-0.157-0.818-0.982-0.818-0.982
                        s0.674-0.759,1.031-0.361c0.363,0.399,1.156,2.111,1.156,2.111s-0.719,1.791-0.719,1.953c0,0.156-0.277,1.794-0.277,1.915
                        c0,0.118-0.798,0.834-0.798,0.834s-0.394,0-0.394,0.199c0,0.198,0.552,1.272,0.552,1.272s0.206,1.237,0.318,1.312
                        c0.122,0.087,4.107,3.547,4.107,3.547l2.587,2.554l1.677,1.391l0.475-0.118c0,0,0.401-1.95,0.241-1.875
                        c-0.161,0.083-0.799-0.594-0.716-0.711c0.077-0.127,0.236-0.685,0.433-0.644c0.203,0.043,0.799,0.158,0.799,0.158l-1.195-1.512
                        l0.396-0.834l0.92,0.278l-1.236-1.313l-0.637-1.277c0,0,0.677,0.158,0.722,0.276c0.035,0.127,0.755-0.511,0.515-0.554
                        c-0.241-0.044-1.674-0.56-1.674-0.68c0-0.118-0.834-0.317-0.88-0.478c-0.036-0.158,0.161-0.795,0.046-0.795
                        c-0.119,0-1.354-0.557-1.354-0.557l-0.802,0.115l-0.438-0.871l0.238-0.677c0,0-0.763-1.084-0.832-1.153
                        c0.061,0.055,1.702-0.572,1.858-0.639c-0.008,0.026,0.776-0.065,0.845,0.234c0.083,0.321,0.438,0.64,0.438,0.64l0.841-0.796
                        c0,0,0.596-0.52,0.835-0.402c0.239,0.119,1.394,0.363,1.557,0.519c0.142,0.146,0.867,0.352,0.979,0.483
                        c-0.011-0.167,0.014-0.684,0.014-0.684l0.034-0.437l1.123-1.512c0,0,0.433-0.636,0.836-0.72c0.398-0.076,1.232-0.793,1.391-0.672
                        c0.16,0.117,1.481,0.08,1.64,0.438c0.156,0.357,0.873-0.12,0.873-0.12s-0.681-0.835-0.717-0.758
                        c-0.037,0.079-2.233-0.879-2.351-0.835c-0.121,0.036-1.59-0.878-1.59-0.878s-0.761-0.279-0.797-0.279
                        c-0.039,0,0.593-0.319,0.831-0.399c0.241-0.078,0.8-0.835,0.8-0.835s-0.277-0.517-0.439-0.677c-0.161-0.158,0.877-0.039,1.234,0.12
                        s2.155,0.238,2.112,0.358c-0.044,0.118,1.195,0.118,1.154,0.438c-0.041,0.319,0.438,0.396,0.598,0.557
                        c0.16,0.16,1.673,0.398,1.755,0.438c0.073,0.039,1.587-0.119,1.587,0.118c0,0.24,0.48-0.038,0.48-0.038s-0.238-1.154-0.517-1.075
                        c-0.282,0.079-0.802-0.319-0.44-0.397c0.36-0.079,1.037-0.478,0.839-0.558c-0.202-0.078-0.519-0.478-0.997-0.679
                        c-0.476-0.199-2.389-0.633-2.588-0.558c-0.197,0.083-3.188-0.639-3.381-0.639c-0.204,0-1.239-0.275-1.239-0.275l-10.197-2.749
                        c0,0-6.333-0.676-6.296-0.799c0.043-0.116-3.663-0.437-3.663-0.437l2.194,1.833l-2.194-0.317c0,0-2.706-0.438-2.786-0.558
                        c-0.082-0.118-7.572-0.159-7.572-0.159l-1.113-1.2c0,0-3.587-0.592-3.706-0.632c-0.119-0.044-4.582,0-4.582,0l-3.737-0.558
                        c0,0-2.513-1.078-3.071-0.957c-0.557,0.12-6.054-0.358-6.374-0.519c-0.316-0.16-2.504,0.16-2.504,0.16l1.783,1.355l-2.942-0.082
                        l-2.948-0.041l-1.118-0.556l0.046,1.634c0,0-0.839,0.155-0.839-0.043c0-0.199-2.591-1.113-2.591-1.113s-2.154-1.91-2.19-1.79
                        c-0.041,0.118-3.498-0.678-3.498-0.678l-2.158-0.396c0,0-0.637,0.277-0.559,0.437c0.08,0.159,0.916,0.716,0.797,0.835
                        c-0.119,0.118-1.43-0.119-1.43-0.119l-3.387-0.119l-0.602-0.637l-4.461,0.04c0,0-1.672-1.316-1.714-1.24
                        c-0.036,0.08-1.273,0.286-1.273,0.286l-0.957,1.033l-2.706,0.2l2.912-1.555l1.035-0.755c0.075-0.204-0.724-1.396-0.878-1.238
                        c-0.157,0.161-2.433-0.557-2.552-0.557s-3.545-0.08-3.545-0.08c-0.242-0.039-1.314,0-1.314,0s-0.398-1.113-0.598-1.074
                        c-0.197,0.04-2.79-0.04-2.79-0.04s-2.308,0.478-2.395,0.716c-0.071,0.241,0.444,0.478,0.444,0.478s-1.234,0.916-1.355,0.836
                        c-0.117-0.08-3.706-0.08-3.706-0.08s-4.978,1.074-4.978,0.954c0-0.102-1.49,0.534-1.837,0.687c0.293,0.257,1.338,0.852,1.2,0.992
                        c-0.158,0.158-3.507,0.318-3.626,0.078c-0.107-0.219-1.431,0.286-1.641,0.318c0.241,0.1,1.809,1.326,1.918,1.513
                        c0.119,0.198,0.407,0.478,0.797,0.318c0.398-0.159,0.756-0.318,0.838-0.159c0.08,0.159,0,0.517,0,0.517s-0.998,0.2-1.113,0.2
                        c-0.114,0-1.316-0.678-1.436-0.717c-0.117-0.04-1.711-0.398-1.912-0.398c-0.204,0-1.079,0.119-1.079,0.119s-0.676,0.598-0.518,0.678
                        c0.165,0.079,0.562,0.835,0.683,0.758c0.117-0.083,0.836-0.401,0.873-0.041c0.041,0.354-0.834,0.638-0.834,0.638
                        s-1.2-0.482-1.239-0.598c-0.039-0.124-0.598-0.798-0.598-1.157s-0.715-1.632-0.914-1.434c-0.197,0.2-0.914,0.279-0.914,0.279
                        l0.877,0.796c0,0,0.754,0.635,0.555,0.677c-0.197,0.04-0.756,0.357-0.793,0.478c-0.041,0.119-0.479,0.794,0.037,0.794
                        c0.518,0,1.355,0.8,1.355,0.8s0.039,1.077,0.117,1.236c0.08,0.159,1.312,0.994,1.312,0.994s0.763-0.478,0.875-0.596
                        c0.126-0.12,1.162-0.318,1.4-0.08c0.239,0.238-0.48,0.835-0.677,0.717c-0.201-0.121-0.637-0.24-0.836-0.161
                        c-0.203,0.079-0.203,0.079-0.203,0.079s-0.277,0.598,0,0.717c0.281,0.121,0.644,0.519,0.602,0.717
                        c-0.043,0.198-0.797,1.554-0.797,1.554l-1.118,0.238c-0.398-0.079-1.033-0.358-1.033-0.358l1.194-0.914l0.16-1.237
                        c0,0,0.041-0.079-0.277-0.358c-0.325-0.277-1.437-1.272-1.437-1.272s-0.676-1.117-0.676-1.236c0-0.125-0.318-0.72-0.318-0.72
                        s-0.758-0.517-0.918-0.553c-0.156-0.041-0.156-0.481-0.035-0.719c0.117-0.24-0.121-1.313-0.162-1.155
                        c-0.046,0.16-1.397-0.039-1.558-0.079c-0.16-0.039-0.516-0.478-0.516-0.478s-0.197-0.674-0.521-0.397
                        c-0.315,0.278-0.872,0.397-0.872,0.397l-0.557,1.472l0.158,0.598l-1.115,0.759c0,0,0.941,0.809,1.028,0.871
                        c-0.068-0.033,0.05,0.803,0.087,1.001c0.036,0.199,1.711,0.638,1.711,0.638s0.877,0.357,0.955,0.715
                        c0.082,0.358-0.24,0.797-0.24,0.797l-1.709-0.797l-3.788-1.193c0,0-3.66-0.238-3.583-0.357c0.083-0.119-1.396-0.958-1.396-0.958
                        l-0.837,0.437c0,0,0.795,0.561,0.919,0.596c0.119,0.044,1.314,0.482,1.314,0.482s0.36,0.199,0.438,0.518
                        c0.083,0.317-0.676,0.715-0.676,0.715s-0.516-0.557-0.516-0.675c0-0.12-0.123-0.598-0.281-0.519c-0.16,0.08-1.633,0.837-1.633,0.837
                        s-1.673,0.039-1.874,0.198c-0.199,0.159-1.274,0.918-1.354,0.717c-0.082-0.199,0.158-1.035,0.122-1.194
                        c-0.042-0.159-1.675,0.28-1.675,0.28s-2.108,0.675-2.191,0.873c-0.078,0.202-1.033,0.399-1.197,0.439
                        c-0.158,0.04-0.355,0.04-0.355,0.04s-0.834,0.52-0.678,0.795c0.16,0.28-1.155,0.437-1.155,0.437s-0.834-0.516-0.873-0.632
                        c-0.038-0.109,0.905-0.743,0.995-0.797c-0.122,0.079-0.995-1.036-1.116-1.076c-0.105-0.032-2.27,0.024-2.656,0.008
                        c0.252,0.092,1.023,0.838,1.023,0.948c0,0.12,0.121,1.276,0.121,1.276s0.632,0.401,0.754,0.354c0.119-0.036-0.122,0.68-0.122,0.68
                        l-1.069-0.119c0,0-0.444-0.641-0.802-0.279c-0.359,0.362-1.551,1.277-1.629,1.158c-0.082-0.12-0.758,0.119-0.718,0.358
                        c0.041,0.24,0.558,0.755,0.558,0.755s-0.755,0.637-0.681,0.4c0.083-0.242-2.067-0.797-2.228-0.757
                        c-0.165,0.04-1.079,0.319-1.079,0.319l0.396,0.676c0,0,1.198,0.079,1.355,0.318c0.165,0.238-0.274,0.716-0.4,0.716
                        c-0.112,0-2.902-1.314-2.902-1.314s-0.918-0.954-0.642-1.232c0.286-0.279,0.522-0.716,0-0.716c-0.515,0-1.072-0.401-1.108-0.56
                        c-0.042-0.159,3.141,0.322,3.141,0.322l1.837,0.196c0,0-0.238,0.242,0.479,0c0.714-0.239,1.91-0.839,2.07-0.873
                        c0.16-0.047,0.355-0.802,0.355-0.802l-0.238-0.676l-6.847-1.632c0,0-2.274-0.677-2.313-0.796s-2.032-0.321-2.032-0.321l-0.958,0.123
                        l0.802-0.998c0,0-3.112-0.919-3.188-0.8c-0.084,0.119-1.356,0.724-1.356,0.724l-2.389-0.401l-3.07,0.716l-3.108,0.759l-4.498,1.91
                        l1.673,0.159l-0.721,1.233l-1.992,1.479l-1.111,1.829l-0.16,0.996l-1.074,1.153c0,0-0.756-0.397-0.915-0.554
                        c-0.158-0.163-2.791,0.752-2.791,0.752l-1.591,1.515c0,0-0.398,0.759-0.478,0.958c-0.083,0.201,0.119,2.312,0.119,2.312
                        s0.956,0,0.676,0.278c-0.28,0.277-0.24,1.555-0.24,1.555l1.117,0.752c0,0,1.472,0.482,1.677,0.44
                        c0.191-0.039,0.913-0.517,1.035-0.597c0.111-0.078,0.993-0.954,1.271-0.918c0.278,0.044,0.994-0.758,1.077-0.474
                        c0.078,0.279,0.239,1.274,0.396,1.513c0.159,0.239,0.716,0.677,0.954,1.232c0.237,0.559,0.564,1.119,0.48,1.233
                        c-0.083,0.124-0.639,0.677-0.639,0.677s-1.191,0.159-1.353,0.324c-0.158,0.157-0.357,0.236-0.477,0.157
                        c-0.123-0.08,0.397-0.64,0.517-0.793c0.121-0.163-0.278-0.801-0.438-0.762c-0.162,0.042-0.317-0.358-0.162-0.477
                        c0.162-0.12,0.122-0.876,0.122-0.876s-0.239-0.121-0.357-0.079c-0.12,0.04-1.514,0.596-1.514,0.596s-0.756,0.797-0.796,0.955
                        c-0.043,0.164-0.362,0.998-0.158,1.593c0.198,0.601,0.675,1.557,0.675,1.557s0.513,0.356,0.318,0.517
                        c-0.196,0.158-0.6,0.756-0.6,0.756l-0.951,0.039c0,0-1.713,0.203-1.875,0.279c-0.157,0.082-1.828,0.596-1.753,0.758
                        c0.084,0.159-0.36,1.874-0.36,1.874c-0.077,0.04-1.751,1.234-1.949,1.234c-0.199,0-1.433,0.317-1.433,0.317
                        s-0.558,1.474-0.596,1.393c-0.04-0.081-1.877,0.876-1.877,0.876s-1.392-0.399-1.432-0.56c-0.04-0.158-0.519-0.516-0.557-0.396
                        c-0.042,0.121,0.476,1.36,0.476,1.599c0,0.233,0.081,0.712-0.079,0.556c-0.16-0.163-0.956-0.397-1.114-0.478
                        c-0.163-0.078-1.515-0.042-1.515-0.042h-0.558c0,0-0.679,0.6-0.719,0.479c-0.037-0.121-0.077,0.52-0.077,0.52l0.396,0.396
                        l1.438,0.597l1.353,0.837l0.518,1.273l0.596,1.195c0,0-0.399,2.469-0.473,2.592c-0.088,0.117-0.921,0.678-0.921,0.678l-2.591-0.044
                        c0,0-1.275-0.277-1.394-0.317c-0.119-0.042-1.913,0.238-1.948,0.079c-0.04-0.161-0.6-0.121-0.6-0.121l-0.282-0.317h-0.716
                        l-0.597,0.675l-0.876,0.044v0.713c0,0,0.358,1.637,0.318,1.518c-0.04-0.123-0.158,1.909-0.158,1.909s-0.861,1.731-0.948,1.863
                        c0.019,0.052-0.047,1.165-0.047,1.165l0.519,0.838l0.079,0.993c0,0-0.399,0.915-0.239,0.836c0.161-0.081,1.437,0.039,1.472-0.119
                        c0.04-0.158,0.799-0.517,0.915-0.24c0.118,0.278,0.56,0,0.684,0.482c0.111,0.477,0.553,1.153,0.596,1.271
                        c0.039,0.124,0.357,0.239,0.357,0.239l0.119,0.322l-0.242,0.2l-0.99,2.227l-2.196,1.555l-1.312,0.834l-0.359,0.999l-0.556,0.637
                        l-0.16,1.234c0,0,0.16,1.551,0.077,1.633c-0.077,0.079-2.986,2.828-2.986,2.828l-1.593,0.358l-0.88,1.515
                        c0,0-1.194,1.112-1.271,1.316c-0.083,0.196-0.679,0.956-0.679,0.956s0.04,1.59,0,1.353c-0.041-0.239-1.711,1.312-1.711,1.312
                        s-0.318,1.833-0.397,1.915c-0.079,0.076-0.875,1.472-0.998,1.432c-0.119-0.041-0.238,0.955-0.238,1.115
                        c0,0.158,0.396,0.635,0.396,0.635s0.562,1.08,0.6,0.96c0.038-0.123,0.038,0.36,0.038,0.36l-0.555,0.554c0,0,0.598,0.919,0.598,1.038
                        c0,0.119,0,2.466,0,2.466l-0.64,1.357l-0.318,1.754l-0.959,0.755l0.04,0.479l0.838,0.675l0.123,0.755l-0.243,0.839v0.84l0.601,1.394
                        c0,0,0.597,0.477,0.716,0.357s1.31,0.756,1.472,1.033c0.16,0.279,1.631,2.032,1.631,2.114c0,0.078,0.24,0.477,0.24,0.477l0.716,2.43
                        c0,0,3.466,2.866,3.546,2.748c0.08-0.116,3.705,2.587,3.705,2.587s2.912-1.43,2.873-1.309c-0.043,0.117,2.465-0.121,2.465-0.121
                        l1.516,0.238l1.111,0.518l4.067-1.869l0.797-0.604l3.144-0.115l1.516,0.591c0,0,0.995,1.479,0.995,1.718s0.598,1.312,0.679,1.152
                        c0.077-0.155,3.545-0.315,3.667-0.277c0.115,0.039,1.63,1.517,1.63,1.517l-0.079,1.396l-0.241,2.466l-0.479,1.196l-0.473,1.077
                        l-0.119,0.757c0,0,3.579,5.258,3.579,5.297s0.917,2.188,0.917,2.188l1.08,2.752l0.638,1.55l-0.638,0.876l1.036,2.674l-0.36,2.625
                        l-1.554,3.389l-0.676,2.508l0.199,3.346l1.866,3.864l1.955,4.422l0.199,4.862l1.557,2.904l1.118,2.348l1.074,2.553l0.555,0.757
                        c0,0,0.083,1.275-0.043,1.275c-0.117,0-0.712,0.043-0.552,0.277c0.158,0.238,1.072,1.833,1.072,1.833l0.039,0.719l1.273,0.713
                        l1.123-0.516c0,0,1.113-0.197,1.234-0.158c0.117,0.039,1.668-0.52,1.668-0.52l2.391,0.359l1.674-0.875l1.833-0.119
                        c0,0,3.146-3.069,3.146-2.989s2.902-3.742,2.902-3.742l1.481-1.278l0.833-2.508l-0.118-1.629c0,0,0.28-0.843,0.556-1.001
                        c0.282-0.158,2.987-1.751,2.987-1.751l0.563-2.631l-0.522-2.591c0,0-0.4-0.991-0.4-1.152c0-0.157,0.279-0.879,0.279-0.879
                        l2.632-2.349c0,0,0.596-0.757,0.875-1.035c0.28-0.278,2.745-1.352,2.745-1.352l1.677-1.63l0.279-6.018c0,0-0.598-2.236-0.637-2.431
                        c-0.039-0.204-1.194-3.983-1.194-4.145c0-0.157-0.398-2.47-0.443-2.672c-0.032-0.192,0.914-2.863,0.914-2.863l1.319-2.593
                        l5.38-6.173l3.03-2.426l4.579-7.493l1.475-3.467l0.315-3.501l-0.953-0.16c0,0-0.48,0.557-0.599,0.635
                        c-0.12,0.082-2.868,0.242-2.868,0.242l-3.347,0.992l-1.633,0.598l-1.593-1.67l0.238-1.194l-2.148-2.553l-3.029-3.022
                        c0,0-1.519-1.158-1.437-1.274c0.082-0.123-0.839-2.911-0.839-2.831s-1.512-1.392-1.512-1.392l-0.039-2.672l-1.633-2.665l-1.789-3.27
                        c0,0-1.517-3.746-1.677-3.945c-0.156-0.198-0.754-1.192-0.557-1.153c0.199,0.041,1.633-0.159,1.633-0.159s2.667,3.149,2.667,3.308
                        s1.597,2.825,1.597,2.825s1.193,1.675,1.193,1.552c0-0.113,0.279,1.554,0.238,1.677c-0.039,0.12,0.717,1.953,0.717,1.953
                        l2.272,2.033l0.477,1.471l2.071,2.27l0.401,1.436l-1.397-1.279c0,0-0.438,0.719-0.279,0.842c0.158,0.116,1.553,1.591,1.553,1.591
                        l0.683,2.029l0.518,1.915l0.754,0.637l2.233-0.437l0.395-0.88h2.192l0.955-0.715l1.191-0.16c0,0,0.918-0.917,0.997-0.957
                        c0.082-0.04,3.627-1.59,3.627-1.59s0.077-1.16,0.238-1.16c0.16,0,3.708-1.115,3.708-1.115l0.357-1.353l1.271-0.08l0.359-0.914
                        l1.235-0.756l0.155-1.993l0.919,0.276l0.281-0.678l-0.318-0.433l1.395-2.031l0.039-0.721l-1.355-1.234l-0.635-0.676
                        c0,0-2.153-0.242-2.235-0.401c-0.078-0.16-0.914-2.073-0.914-2.073c0-0.594,0.039-1.673-0.082-1.591
                        c-0.115,0.079-0.793,0.835-0.793,0.835l-2.465,2.272l-2.156,0.557c0,0-0.714-0.199-0.756-0.317c-0.039-0.12-0.119-1.954-0.119-1.954
                        s-0.92-1.075-0.956-1.233c-0.039-0.16-0.719,1.396-0.719,1.396s-1.036-1.396-0.919-1.44c0.119-0.037-0.477-1.392-0.477-1.392
                        l-2.068-2.387l-0.119-1.237c0,0,0.996-1.078,1.154-1.118c0.158-0.039,1.592-0.237,1.753,0.283c0.16,0.513,1.355,2.272,1.355,2.51
                        c0,0.238,1.829,1.83,2.031,1.79c0.196-0.039,0.911,0.358,1.154,0.518c0.238,0.159,0.713,0.438,0.914,0.64
                        c0.199,0.195,0.717,0.079,0.717,0.079l1.315-0.201c0,0,1.074-1.036,1.117-0.836c0.035,0.203,1.271,0.282,1.113,0.557
                        c-0.16,0.28,0.044,1.079,0.158,1.317c0.124,0.241,5.497,1.077,5.497,1.077l2.474,0.318c0,0,2.623-0.241,2.783-0.241
                        c0.158,0,1.837,0.163,1.995,0.117c0.156-0.035,2.547,2.591,2.547,2.591l2.231,1.12l0.515-0.042l-1.268,0.559
                        c0,0,0.432,0.996,0.432,1.114c0,0.12,2.233,1.714,2.233,1.714s0.795-0.521,0.914-0.521c0.122,0,0.679-0.198,0.72-0.477
                        c0.039-0.278-0.122-1.073,0.078-1.153c0.203-0.08,0.476-0.321,0.523,0.04c0.035,0.356,0.521,3.782,0.438,3.819
                        c-0.087,0.047,0.676,2.592,0.676,2.711c0,0.12,0.996,3.229,1.033,3.348c0.041,0.118,1.672,3.623,1.791,3.743
                        c0.117,0.12,1.714,4.26,1.714,4.26s0.918,1.714,0.877,1.995c-0.039,0.279,0.32,1.632,0.56,1.792
                        c0.238,0.159,1.311,0.558,1.311,0.558s0.596-0.521,0.64-0.677c0.036-0.158,0.477-0.875,0.632-1.113
                        c0.161-0.243,0.885-0.318,0.921-0.161c0.037,0.161,0.878,0.558,0.878,0.558l-0.087,1.95c0,0,0.164,1.271,0.281,1.757
                        c0.126,0.477,1.118,0.875,1.118,0.875l1.195-1.075l0.516-1.837l-1.191-1.789c0,0-0.914-0.995-1.035-1.118
                        c-0.121-0.115-0.884-0.234-0.884-0.234s0.087,0.399,0.164,0.555c0.083,0.16-0.164,0.202-0.164,0.202l-0.914-0.357l0.16-1.045
                        c0,0,0.685-0.117,0.802-0.117c0.116,0-0.048-1.592-0.048-1.592s0.247-2.825,0.327-2.905c0.08-0.083-0.121-2.868-0.44-2.986
                        c-0.315-0.12,0-1.035,0.161-1.076c0.158-0.042,1.711-0.597,1.711-0.597l0.873-1.713c0,0,1.558-1.078,1.677-1.158
                        c0.117-0.08,1.908-1.988,1.908-2.231c0-0.235,0.204-0.833,0.679-0.918c0.479-0.075,1.358-0.713,1.358-0.713v-1.316
                        c0,0,0.158-0.637,0.516-0.795c0.355-0.16,1.273-0.281,1.273-0.281s0.202,0.519,0.08,0.597c-0.121,0.082,2.03-0.597,2.03-0.597
                        s0.955,0,1.115-0.038c0.163-0.042,0.64-0.755,0.64-0.755s-0.204-0.641,0.073-0.483c0.284,0.165,0.962,0.88,0.884,1
                        c-0.085,0.114,0.395,0.913,0.279,1.231c-0.123,0.318,1.831,2.474,1.831,2.474s0.952-0.441,0.875-0.122
                        c-0.083,0.318-0.277,1.317-0.277,1.317s0.598,0.396,0.834,0.437c0.24,0.039,0.917,1.353,0.917,1.353s-0.16,1.192-0.16,1.352
                        s0.086,1.317,0.039,1.517c-0.039,0.198,1.633,0.562,1.633,0.562S325.993,97.993,326.073,97.871z M207.967,38.68l1.317-1.116
                        l0.281-1.077c0,0,1.232,0.201,1.269,0.36c0.039,0.157,0.323-0.36,0.636-0.079c0.322,0.278,0.721,0.235,0.762,0.476
                        c0.035,0.24,0.277,0.519,0.316,0.359c0.039-0.16,0.039-0.677,0.039-0.677s-0.355-0.198-0.557-0.322
                        c-0.201-0.118-0.159-0.477,0.041-0.592c0.196-0.119,0.754-0.444,0.915-0.322c0.16,0.116,0.878-0.159,0.878-0.159
                        s0.119-0.243,0.197-0.357c0.083-0.124,0.481-1.197,0.481-1.197s-0.284-0.119-0.362-0.479c-0.08-0.356,0.44-1.393,0.562-1.431
                        c0.114-0.041,1.674-0.959,1.674-0.959s0.596-0.639,0.357-0.835c-0.241-0.202-2.032-1.077-2.032-1.276s-0.199-1.235-0.083-1.631
                        c0.121-0.397,0.84-1.157,0.958-1.317c0.121-0.155,0.997-1.232,1.157-1.196c0.16,0.043,0.756-0.08,0.912-0.156
                        c0.163-0.083,1.553-0.719,1.315-0.758c-0.238-0.04,0.081-0.756-0.041-0.717c-0.119,0.039,0.122-0.915,0.401-0.994
                        c0.277-0.079,0.754-0.438,0.879-0.438c0.112,0,1.075,0.04,1.313,0.079c0.238,0.04,1.074-0.357,1.193,0
                        c0.119,0.358,0.435,0.438,0.16,0.557c-0.279,0.12-0.916,0.678-1.315,1.034c-0.396,0.357-1.594,1.159-1.754,1.195
                        c-0.156,0.042-0.243,0.119-0.559,0.321c-0.318,0.195-0.318-0.278-0.394,0.476c-0.083,0.758-0.199,1.593-0.043,1.875
                        c0.16,0.278,0.277,0.716,0.119,0.916s-0.041,0.319,0,0.677s0.527,0.516,0.561,0.676c0.037,0.159,0.674,0.477,0.674,0.477
                        c0.318-0.036,0.685-0.077,0.758,0.083c0.083,0.159,0.243,0.08,0.243,0.08l0.671-0.163c0,0,0.681-0.398,0.921-0.358
                        c0.238,0.04,0.555-0.079,0.834,0c0.279,0.08,1.472-0.318,1.636-0.279c0.158,0.044,1.27-0.437,1.353-0.277
                        c0.08,0.159,0.678,0.119,0.678,0.119l0.479,0.358c0,0.238-0.479,0.795-0.596,0.878c-0.121,0.078-0.518,0.401-0.757,0.318
                        c-0.238-0.077-0.402,0.04-0.72-0.077c-0.319-0.122-0.917-0.284-1.078-0.284c-0.159,0-2.027,0.444-2.027,0.444l-0.953,0.276
                        l-0.165,0.56l0.121,0.119l0.956,0.596c0,0.201,0.401,0.08,0.318,0.558c-0.078,0.477-0.119,0.676-0.238,0.914
                        c-0.122,0.24-0.598,0.678-0.717,0.398c-0.119-0.278-0.714-0.796-0.875-0.915c-0.156-0.119-0.634-0.04-0.92-0.04
                        c-0.277,0-0.836,0.399-0.836,0.837c0,0.437-0.277,1-0.16,1.431c0.121,0.444,0.641,1.002,0.403,1.279
                        c-0.243,0.28-0.797,0.479-1.035,0.597c-0.238,0.12-0.8,0.518-0.997,0.597c-0.199,0.079-0.797,0.318-0.918,0.04
                        c-0.117-0.28-0.357-0.717-0.357-0.717s-0.199-0.396-0.282-0.277c-0.071,0.115-0.516,0.16-0.516,0.16l-1.031,0.397
                        c0,0-0.562,0.397-0.679,0.477c-0.123,0.079-0.719,0.079-0.958,0.198c-0.238,0.121-0.956,0.718-1.153,0.439
                        c-0.202-0.277-0.317,0.199-0.563-0.239c-0.233-0.437-0.157-0.916-0.438-0.834c-0.275,0.08-0.917,0.238-0.992,0.397
                        c-0.083,0.159-0.162,0.159-0.316,0.318c-0.16,0.158-1.317,0.278-1.317,0.278V38.68z M240.971,68.176
                        c-0.298,0.778-0.298,1.792-0.719,2.57c-0.42,0.773-0.599,1.191-0.896,1.675c-0.3,0.472-0.3,1.132-0.776,1.43
                        c-0.477,0.301-1.193,0.718-1.612,0.42c-0.415-0.3-2.09-0.239-2.274-0.179c-0.177,0.06-2.206-0.06-2.447,0.355
                        c-0.238,0.42-1.786,0.122-2.033,0c-0.238-0.118-3.164-1.315-3.402-1.372c-0.238-0.059-1.738-0.715-1.979-0.894
                        c-0.238-0.181-1.729-0.363-1.787-0.541c-0.061-0.18,0.119-0.418-0.124-0.358c-0.234,0.055-1.97,0.597-2.208,0.772
                        c-0.243,0.186-0.773,0.663-0.773,0.663s-0.723,0.716-0.663,1.253c0.064,0.538,0.719,0.956,0.481,1.254s-1.074,0.656-1.074,0.656
                        s-0.902-0.835-1.196-0.954c-0.299-0.12-3.104-0.537-3.104-0.537l-1.136-1.314c0,0-1.792-1.196-1.972-1.256
                        c-0.181-0.059-2.152,0-2.454-0.238c-0.3-0.243-1.255-1.495-1.731-1.434c-0.479,0.059-0.298-0.717-0.119-0.836
                        c0.178-0.119,0.716-1.135,0.657-1.314c-0.062-0.181,0.298-1.193-0.298-1.491c-0.597-0.306-0.181-1.321-0.181-1.321
                        s0.599-0.119,0.36-0.119s-1.135,0.06-1.376-0.238c-0.235-0.299-0.302-0.417-0.534-0.299c-0.244,0.121-1.738,0.359-1.915,0.299
                        c-0.181-0.059-1.612,0.119-1.851,0.119c-0.238,0,0.06,0.061-0.238,0c-0.303-0.06-1.499,0.481-1.557,0.716
                        c-0.055,0.239-1.251-0.055-1.432,0c-0.182,0.06-1.913,0.06-1.913,0.06l-2.87,0.478c0,0-1.911,0.962-1.97,1.26
                        c-0.06,0.299-0.658,0.777-0.836,0.893c-0.177,0.121-1.252,0-1.318-0.178c-0.056-0.179-1.971,0.062-1.971,0.062
                        s-0.775-0.421-1.014-0.24c-0.238,0.179-0.238-0.779-0.238-0.779l0.298-0.711l1.074-0.719l2.573-0.482l1.255-0.833l0.773-0.299
                        l0.476-1.253c0,0,0.897-0.179,0.837-0.361c-0.059-0.179-0.294-1.016-0.294-1.016l1.729-2.687l2.449-1.196l0.419-0.837
                        c0,0-0.235-1.074-0.059-1.256c0.178-0.18,1.792-0.539,1.792-0.539l2.033,0.658c0,0,1.074-0.715,1.312-0.835
                        c0.238-0.121,1.376-0.776,1.376-0.776s0.116-0.537,0.356-0.478c0.239,0.059,1.255-0.179,1.377,0.299
                        c0.119,0.478,1.015,1.973,1.015,1.973l1.373,1.435l1.317,1.016l1.614,0.595c0,0,0.954,0.837,1.132,0.897
                        c0.179,0.058,1.074,1.077,1.074,1.077l0.477,0.833c0,0-0.297,0.66-0.536,0.96c-0.238,0.295-0.955,1.075-1.135,1.011
                        c-0.18-0.055-1.557-0.294-1.557-0.294l-1.492,0.178c0,0-0.235,0.359,0.182,0.657c0.418,0.298,0.895,0.24,1.311,0.478
                        c0.425,0.238,1.499,0.719,1.499,0.719s0.719,0.116,0.719,0.294c0,0.18,0.236-0.478,0.176-0.895
                        c-0.059-0.417-0.121-0.953,0.298-1.074c0.421-0.119,1.075,0,1.075-0.181c0-0.178,0.183-0.42,0.183-0.42l0.537-0.652l-0.06-0.417
                        l0.541-0.425c0,0-0.298-0.351-0.541-0.654c-0.236-0.3-0.477-0.479-0.304-0.778c0.183-0.297,0.778-0.717,1.083-0.477
                        c0.297,0.238,1.191,0.357,1.131,0.658c-0.057,0.296,0,0.713,0.122,0.478c0.115-0.241,0.06-1.197,0.06-1.197
                        s-0.479-0.655-0.898-0.715c-0.414-0.062-1.498-0.598-1.794-0.717c-0.297-0.12-0.833-0.417-0.833-0.417s0.236-0.657-0.117-0.597
                        c-0.362,0.059-1.436-0.123-1.436-0.299c0-0.183-1.077-1.021-1.132-1.196c-0.06-0.183-1.019-1.496-1.019-1.496
                        s-0.541-0.537-0.598-0.716c-0.062-0.18-0.119-0.479-0.239-0.955c-0.123-0.478,1.193-1.673,1.134-1.495
                        c-0.061,0.176,0.3,0.418,0.542,0.955c0.235,0.54,1.192,1.435,1.312,1.793c0.118,0.357,1.436,1.376,1.73,1.492
                        c0.304,0.118,0.477,0.48,1.077,0.718c0.6,0.24,0.542,0.355,1.317,0.716c0.773,0.359,0.895,0.482,1.01,0.657
                        c0.124,0.182,0.598,0.123,0.781,0.421c0.178,0.297,0.417,0.358,0.417,0.656c0,0.297,0.243,0.297,0.117,0.895
                        c-0.117,0.597-0.295,0.776-0.234,0.895c0.06,0.122,1.136,2.334,1.555,2.334c0.417,0,1.67,0.478,1.491,1.192
                        c-0.178,0.716,0.775,1.673,0.775,1.673s0.799,0.051,1.351,0.143c0.023-0.417-0.065-1.086,0.388-1.339
                        c0.532-0.299,1.31-0.6,1.189-0.895c-0.122-0.298-0.241-0.838-0.717-1.194c-0.472-0.357-0.956-0.543-1.075-1.134
                        c-0.117-0.599-0.299-1.379,0.238-1.138c0.537,0.237,1.016,1.378,1.26,0.596c0.235-0.775,0.831-1.314,1.248-1.134
                        c0.423,0.179,1.2,0.477,1.14,0.716c-0.061,0.239,0.537,2.154,0.537,2.154s0.238,0.181,0.357,1.075s0.895,1.134,0.778,1.433
                        c-0.121,0.296-0.481,0.475,0.479,0.597c0.951,0.12,1.852,0.297,1.852,0.536c0,0.24,0.776,0.364,0.896,0.54
                        c0.117,0.18,0.834,0.537,0.955,0.18c0.119-0.355,0.359-1.078,0.538-0.958c0.179,0.124,1.672,0.124,1.793,0.604
                        c0.124,0.471,1.137,0.471,1.137,0.598c0,0.115,0.896-0.299,0.896-0.299s1.253-0.958,1.612-0.779c0.357,0.179,1.37-0.661,1.251,0.116
                        C240.492,66.682,241.271,67.401,240.971,68.176z M246.944,57.66c-0.176,0.181-1.315,1.314-1.315,1.314l-2.271-0.3h-1.552
                        l-1.314-0.476c0,0-0.898-0.298-1.076-0.479c-0.182-0.179-1.313-0.599-1.313-0.599l-2.392,0.539l-1.854,0.539l-0.653,0.595
                        l-2.212-0.536l-1.313-0.656l-0.721-0.779h0.658l-0.234-0.955l0.115-0.656l0.595-0.361l0.421-1.731l0.719-0.299l0.177-0.894
                        c0,0,0.599-0.541,0.78-0.72c0.179-0.177,0.776-1.017,0.776-1.017l1.43,0.599c0,0,1.494,0.181,1.256,0.242
                        c-0.243,0.058-0.958,0.897-0.958,0.897s0.538,0.294,0.785,0.477c0.233,0.179,0.774,0.475,0.653,0.836
                        c-0.121,0.357,0.896,0.298,0.896,0.298l0.359-0.597l1.67-0.417l0.598-0.302l-0.957-0.294c0,0-0.836-0.302-0.715-0.482
                        c0.121-0.181,0.896-1.375,0.896-1.375s1.973-0.595,2.15-0.595c0.175,0,1.378-0.239,1.378-0.239s-0.956,0.955-1.079,1.136
                        c-0.124,0.181,0.062,0.774-0.238,1.016c-0.296,0.238-0.72,0.48-0.896,0.541c-0.183,0.055-0.063,0.655,0.117,0.716
                        c0.184,0.061,0.779,0.298,0.779,0.298l2.63,1.372l1.612,1.612l1.259,1.021C246.589,56.945,247.123,57.482,246.944,57.66z"/>
		<!-- Madagascar -->
    <path fill="orange" d="M240.563,17.773c-0.021-0.008-0.044-0.008-0.052-0.008C240.492,17.773,240.515,17.773,240.563,17.773z M385.742,30.155
                        c0.005-0.009-0.004-0.025-0.014-0.037C385.733,30.159,385.733,30.179,385.742,30.155z M277.995,9.995c0,0,0.025-0.006,0.073-0.029
                        c-0.041-0.037-0.069-0.065-0.073-0.083C277.956,9.72,277.995,9.995,277.995,9.995z M261.066,143.438c0,0-1.278,1.438-1.354,1.68
                        c-0.084,0.235-1.115,1.51-1.28,1.907c-0.16,0.398-1.43,1.273-1.43,1.273l-2.311,0.957c0,0-0.795,0.08-0.558,0.403
                        c0,0-0.16,0.633-0.714,1.352c-0.56,0.715,0,1.67,0,1.67l0.315,1.593v1.516c0,0-0.479,1.673-0.717,1.751
                        c-0.236,0.082-0.635,0.559-0.873,1.357c-0.242,0.795-0.16,1.353-0.16,1.353s0.16,1.195-0.082,1.436
                        c-0.243,0.238,0.398,1.431,0.641,1.834c0.238,0.395,0.876,0.633,0.876,0.633s0.554,0.48,0.795,0.637
                        c0.238,0.16,1.432-0.312,1.432-0.312s0.879-0.398,1.115-0.561c0.24-0.163,0.401-0.238,0.875-1.035
                        c0.481-0.797,0.163-0.559,0.238-0.797c0.085-0.238,0.557-1.277,0.8-2.63c0.238-1.355,0.32-1.275,0.637-2.469
                        c0.316-1.196,0.715-1.517,0.795-2.468c0.08-0.957,0.158-1.358,0.236-1.679c0.082-0.316,0.882-1.51,0.958-2.309
                        c0.078-0.793,0.078-1.194-0.076-1.51c-0.158-0.323,0.956-0.085,1.112-0.562c0.163-0.479,0,0,0.082-0.235
                        c0.081-0.243,0.163-1.754,0.163-2.629c0-0.876-0.877-2.236-0.965-2.47C261.543,142.884,261.066,143.438,261.066,143.438z"/>
    <path fill="pink" d="M340.65,131.889c0.243-0.637,0-0.717-0.157-1.035c-0.158-0.318,0.315-1.75,0.955-2.31c0.637-0.559-0.318-0.641-0.318-0.641
                        l-0.956,0.16l-0.877-1.673c0,0-1.514-1.191-1.99-1.512c-0.479-0.316,0.712-0.957,0.712-0.957s-2.702-2.549-3.022-2.549
                        c-0.318,0-1.915-1.273-2.153-1.356c-0.238-0.077-1.512-2.23-1.512-2.23l-5.42-2.707c0,0-0.715,0.64-0.715,0.955
                        c0,0.319,0.957,0.478,0.957,0.478s0.316,0.238,0.635,0.399c0.318,0.16,1.273,0.955,1.354,1.516c0.077,0.555,0.24,0.875,0.797,1.35
                        c0.561,0.479,1.512,0.722,1.512,0.722s0.403,1.352,0.722,1.512c0.316,0.16,0.557,0.874,0.712,1.275
                        c0.161,0.398,1.677,2.867,1.591,3.743c-0.076,0.877,1.122,2.95,1.122,2.95s2.709,2.148,2.789,2.469
                        c0.078,0.316,2.063,0.876,2.063,0.876S340.412,132.525,340.65,131.889z M359.134,115.556c0-0.318-0.877-1.033-1.118-1.354
                        c-0.238-0.321-1.67-1.595-1.988-1.833c-0.316-0.238,0,0-0.477,0.88c-0.477,0.875-1.037,1.91-1.278,1.988
                        c-0.24,0.08-1.988,1.194-2.469,1.751c-0.477,0.557-1.43,1.993-1.748,1.76c-0.318-0.243-1.679,1.028-1.679,1.028l-0.715,1.753
                        l-2.232-0.475l0.158,0.719c0,0-0.713,1.11-0.553,1.354c0.16,0.239,0,1.117,0.238,1.59c0.236,0.482,0.477,0.799,0.875,1.117
                        s0.477,1.354,0.238,2.151s0.321,0.955,0.637,1.278c0.318,0.316,1.034,0.398,1.354,0.155c0.318-0.24,0.957-0.315,1.36-0.077
                        c0.39,0.238,1.432,0.238,1.748,0.637c0.318,0.398,1.594,0.158,1.83,0.398c0.243,0.238,1.517-0.24,1.833-0.563
                        c0.315-0.312,0-0.948,0-1.988c0-1.035,0.16-0.955,0.721-1.354c0.557-0.398,0.955-0.717,1.033-1.271
                        c0.083-0.561,0.241-1.516,0.241-1.995c0-0.479,1.275-0.397,1.511-0.558c0.246-0.16-0.16-0.477-0.16-0.715
                        c0-0.242-1.035-1.355-1.271-1.754c-0.238-0.401,0.396-2.392,0.792-2.71C358.419,117.149,359.134,115.875,359.134,115.556z"/>
    <path fill="red" d="M347.981,136.986c0.237,0.08,0.794,0.08,1.985,0.398c1.202,0.318,2.317,0.4,2.474,0.717c0.16,0.316,1.191,0,1.675-0.078
                        c0.477-0.082,1.596-1.118,2.311-0.32c0.718,0.797,2.149,0.238,2.389,0.398c0.238,0.155,0.961-0.398,1.832-0.316
                        c0.878,0.076,0.958,0.316,1.196,0.316s1.035,0.24,1.434,0.155c0.399-0.077,0.875-0.554,1.593-0.472
                        c0.721,0.076,2.627-0.562,2.627-0.562s0,0.081-0.472,0.399c-0.481,0.318-2.075,1.511-2.075,1.511s-0.24-0.157-0.321,0.323
                        c-0.077,0.477-0.554,1.435-0.077,1.032c0.48-0.393,2.153-1.829,2.552-2.147c0.394-0.318,0.554-0.48,0.953-0.719
                        c0.398-0.238,1.273-0.479,1.273-0.479l0.561-0.398c0,0-0.48-0.316-0.721-0.238c-0.234,0.083-0.637-0.316-1.191-0.078
                        c-0.56,0.238-2.071,0.477-2.071,0.477s-0.957,0.161-1.514-0.077s-1.198-0.638-1.435-0.321c-0.238,0.321-1.592,0.717-1.835,0.717
                        c-0.235,0-1.113-0.08-1.75-0.237c-0.638-0.158-0.798-0.158-1.116-0.158s-0.318-0.238-1.194-0.321
                        c-0.879-0.078-1.122-0.316-1.352-0.238c-0.247,0.083-0.637,0.16-0.955,0.321c-0.322,0.155-1.282,0.155-1.514-0.083
                        c-0.243-0.238-2.635-0.715-2.635-0.715s-0.316-0.398,0.403-0.637c0.715-0.238,0.559-0.238,0.475-0.555
                        c-0.078-0.324-1.276-0.324-1.59-0.238c-0.318,0.074-1.12,0.238-1.438-0.086c-0.316-0.312-1.273-1.118-1.589-0.638
                        c-0.321,0.479-0.16,1.118-0.481,1.04c-0.316-0.078-2.472,0.158-2.472-0.078c0-0.238-0.557-0.879-0.797-0.962
                        c-0.238-0.077-0.158-0.315-0.555-0.48c-0.4-0.151-1.195,0.082-1.195,0.082l-0.795,0.083l-0.958,1.113c0,0,2.231,0.242,2.47,0.559
                        c0.238,0.32,1.434,1.273,1.434,1.273s1.59,0.398,1.991,0.477C345.91,136.828,347.743,136.905,347.981,136.986z M345.355,92.295
                        c-0.247-0.158-0.879-0.158-0.879-0.158l-0.798,0.317l-0.398-0.159l-0.879,1.197c0,0,0.24,1.352,0.479,1.352s1.115,0,1.115,0
                        l0.88-0.636l0.48-1.193C345.355,93.015,345.588,92.455,345.355,92.295z M358.257,89.109l0.479-0.958c0,0,0.24-0.956,0.317-1.194
                        c0.081-0.243,0.396-0.958,0.163-1.356c-0.24-0.398-0.082-0.954-0.24-1.273c-0.161-0.316-0.24-0.796-0.24-0.796l-0.797,0.317
                        c-0.318,0.318-0.795,1.752-0.795,1.752s-0.319,1.439-0.081,1.75c0.238,0.325,0.876,1.198,0.876,1.198L358.257,89.109z"/>
    <path fill="red" d="M368.294,113.086c0.717,0.241,0.957,0.085,0.875-0.242c-0.078-0.318-0.318-1.988-0.477-2.623c-0.16-0.637,0.955-1.118-0.238-2.071
                        c-1.193-0.96-1.113-0.875-1.193-0.96c-0.081-0.08-0.081-0.875-0.081-0.875s0.238-0.795,0.081-1.033
                        c-0.158-0.238-0.319-0.717-0.479-0.955c-0.16-0.24-0.16-0.318-0.639-0.318c-0.477,0-0.477-0.559-0.795-0.482
                        c-0.316,0.08-1.115,0.716-0.559-0.234c0.559-0.962,0.242-1.12,0.242-1.28c0-0.158-0.403-0.396-0.799-0.475
                        c-0.396-0.082-0.718-0.559-1.274-0.4c-0.557,0.164-0.795-0.236-1.115-0.236c-0.318,0-0.477-0.401-0.555-0.875
                        c-0.082-0.479,0.078-1.436,0.078-1.673c0-0.242,0.477-0.958,0.477-0.958s0.16-0.322,0-0.877c-0.158-0.556-0.477-1.513-0.477-1.91
                        c0-0.398-0.88-0.797-0.88-0.797l-1.037,0.398l-0.396,3.506c0,0-0.716,0.236-0.634,0.554c0.075,0.321,0.075,1.835,0.476,2.153
                        c0.396,0.315,1.037,0.715,1.037,0.715c0.156,0.4-0.236,1.193-0.236,1.193s0.951,1.12,1.036,1.44
                        c0.076,0.316,0.557,0.155,0.557,0.155s-0.238-2.15,0.236-1.754c0.479,0.4,1.752,0.325,1.83,0.799
                        c0.083,0.479,0.958,0.955,1.113,1.436c0.16,0.478,1.198,0.638,1.122,1.032c-0.082,0.4-0.721,0.4-1.122,0.479
                        c-0.394,0.08-1.67-0.873-1.67-0.873s-0.318-0.08-0.396,0.395c-0.078,0.479,0.158,1.672,0.477,2.07c0.316,0.401,0.637,0,0.798,0.238
                        c0.16,0.243,0,0.8,0.24,1.12c0.235,0.318,0.873,0.396,1.115,0.236c0.238-0.156,1.035-0.557,1.035-0.557s-0.084-0.955-0.4-1.118
                        c-0.318-0.158-0.797-0.637-0.555-0.872c0.236-0.241,0.713-0.718,0.955-0.64c0.234,0.08,0.798,1.116,0.715,1.354
                        c-0.077,0.238,0,0.321,0.321,1.194c0.315,0.882,0.477,0.721,0.077,0.882c-0.398,0.155-0.795,0.637-1.037,0.795
                        c-0.053,0.037-0.061,0.06-0.053,0.075c-0.058-0.019-0.211-0.047-0.582-0.075c-1.04-0.08-0.799-0.557-1.04-0.08
                        c-0.235,0.477-0.477,0.875-0.477,0.875l-0.554,0.238c0,0-0.401,1.273-0.321,1.67c0.078,0.405,0.078,0.405,0.078,0.405
                        s0.797-1.517,1.038-1.517c0.235,0,0.235,0.398,0.557,0.158c0.322-0.238,0.641-0.076,0.641-0.076s0.477-0.242,0.395,0.393
                        c-0.073,0.637-0.073,0.717,0.158,1.362c0.245,0.633,0.882,0.953,1.12,1.191s0.554,0.398,0.715,0.557
                        c0.16,0.158,0.238-0.717,0.16-1.354C367.895,113.327,367.579,112.844,368.294,113.086z M362.72,122.726
                        c0.882,0.479,1.432,0.72,2.149,0.958c0.721,0.238,1.432-0.479,1.594-0.317c0.158,0.157,0.878-0.56,0.878-0.56
                        s0.554-0.797,0.477-1.033c-0.08-0.244-0.161-0.959-0.321-0.719c-0.155,0.236-1.672,1.115-1.988,1.192
                        c-0.316,0.08-1.115-0.237-1.832-0.237c-0.718,0-2.47-0.559-2.713-0.32c-0.231,0.242-0.953,1.194-0.875,1.596
                        c0.082,0.398,0,0.637,0,0.879c0,0.238-0.238,1.352-0.238,1.035l-1.114,2.942c0,0,0.874,2.235,0.798,2.634
                        c-0.084,0.396-0.242,2.63,0,2.387c0.242-0.242,1.43-0.398,1.43-0.398s0.403-1.434,0.325-2.07c-0.082-0.637-0.802-2.63-0.165-2.47
                        c0.642,0.16,1.278,0.955,1.278,0.955s-0.48,0.483-0.32,0.8s0.717,0.715,0.639,1.432c-0.08,0.717,0.238,1.037,0.238,0.795
                        c0-0.238,0.798,0.16,0.878,0.32c0.068,0.143,0.822-0.524,0.939-0.518c0.009-0.238,0.128-1.215-0.066-1.473
                        c-0.241-0.318-0.241-0.795-0.793-1.432c-0.562-0.644,0.158-0.798-0.401-1.521c-0.557-0.712-0.795-0.474-0.557-0.712
                        c0.236-0.241,0.718-0.399,1.116-0.638c0.394-0.24,0.715-0.875,0.715-0.875c0.08-0.238,0.242-0.158-0.396-0.318
                        c-0.637-0.16-1.198-0.322-1.595,0.16c-0.396,0.475-0.795,0.555-0.795,0.555s0,0-0.318,0.08s-0.24-0.477-0.479-0.557
                        c-0.243-0.078-0.243-0.158-0.398-0.715c-0.161-0.559,0-1.436,0.242-1.599C361.288,122.807,361.843,122.247,362.72,122.726z"/>
    <path fill="red" d="M364.789,132.047c0.009-0.027,0-0.037-0.014-0.039C364.771,132.062,364.775,132.093,364.789,132.047z M396.017,132.047
                        c-0.076-0.479-0.16-1.035-0.392-1.432c-0.245-0.398-5.425-3.111-6.062-3.349c-0.637-0.238-3.975-1.274-3.975-1.274
                        s-1.599,0.637-1.599,0.878c0,0.238-0.798,1.115-1.118,1.436c-0.315,0.316-0.237,0.635-0.714,0.557c-0.48-0.08-0.555,0-0.802-0.24
                        c-0.231-0.238-0.474-1.04-0.792-1.275c-0.321-0.238-0.956-0.557-0.802-1.194c0.164-0.637,0.398-1.512-0.078-1.512
                        s-1.191,0.321-1.352,0.076c-0.16-0.234-1.113-0.154-1.113-0.154l-1.989,0.557l-0.247,0.08c0,0,0.88,1.671,1.441,1.51
                        c0.557-0.157,1.59,1.116,1.59,1.116s-0.316,0.719-0.158,0.957s0.797,1.435,0.797,1.435l1.273-0.08l1.274,0.557l3.428,1.115
                        l0.96,1.111l0.557,2.396c0,0-1.438,0.953-1.356,1.352c0.078,0.399,1.833-0.077,1.833-0.077l1.432,0.715l1.748,0.875l1.997,0.077
                        l1.191-1.352c0,0,1.75-1.512,1.75-1.193s1.597,0.955,1.837,1.673c0.243,0.717,1.674,1.995,1.674,1.995s1.988,0.637,2.229,0.717
                        c0.236,0.074,0.798,0.158,1.358,0.316c0.557,0.159-0.561-1.437-0.561-1.437s-1.755-1.035-1.833-1.434
                        c-0.078-0.399-1.512-1.59-1.432-1.989c0.078-0.398-0.642-0.875-0.319-0.875c0.319,0,1.591-0.158,1.433-0.402
                        c-0.158-0.234-1.035-1.751-1.433-1.751C397.295,132.525,396.101,132.525,396.017,132.047z M398.728,158.973
                        c0,0-0.875-0.395-0.955-0.236c-0.079,0.16-0.401-1.514-0.401-1.514l0.16-0.875c0,0-2.393-3.031-2.466-2.788
                        c-0.087,0.238-0.88-2.47-0.88-2.47l-0.237-2.947l-0.558-1.754l-1.432,0.16l-0.32-2.87l-0.802-2.708l-0.394-0.158l-0.798,1.83
                        c0,0-0.398,2.552-0.559,3.428c-0.16,0.875-0.238,2.152-0.715,2.949c-0.479,0.797-1.595,2.705-1.595,2.705s-1.275,0-1.436-0.238
                        c-0.158-0.238-1.59-0.957-1.59-0.957l-0.88-1.353l-1.429-1.113c0,0-0.964-1.198-1.04-1.118c-0.077,0.079,0.722-1.113,0.953-1.274
                        c0.247-0.158,0.321-0.953,0.321-0.953l1.275-1.039c0,0,0.239-0.399,0-0.635c-0.24-0.241-0.24-0.64-0.557-0.722
                        c-0.32-0.078-2.153,0.802-2.153,0.802l-1.512-0.72c0,0-1.118-0.559-1.352-0.957c-0.24-0.396-0.88-0.635-1.038-0.477
                        c-0.16,0.16,0,0.955,0,0.955s0.327,0.702,0.442,0.921c-0.146-0.124-0.681,0.277-0.681,0.277l-1.514,0.155l-0.958,0.876l-0.717,1.357
                        l-0.476,0.956c0,0,0.396,0.637,0.238,0.556c-0.16-0.079-2.312,0.559-2.312,0.559s-0.561-1.194-0.799-1.433
                        c-0.238-0.241-0.953-0.638-1.273-0.638c-0.316,0-1.114,0.718-1.114,0.718l-0.315,1.671l-1.198-0.318l-1.038,1.752l-1.026,0.401
                        l-0.565,1.193l-0.316-1.271l-1.195,1.113l-0.401,1.828c0,0-1.514,1.437-1.674,1.755c-0.158,0.316-3.509,1.517-3.509,1.517
                        l-2.145,0.715c0,0-1.115,0.238-1.355,0.238c-0.238,0-2.313,1.516-2.313,1.516l-0.711,0.715l-0.24-0.637l-0.877,0.955v1.993
                        l-0.877,1.192l0.479,1.831l-0.717,0.242l-0.637,0.481l0.718,1.434l0.238,2.623c0,0,0.397,0.8,0.319,1.28
                        c-0.079,0.473-0.4,0.953-0.4,1.271s0.24,1.512,0.24,1.83c0,0.32-0.72,2.396-0.72,2.396l-0.872,1.432l-0.715,0.08
                        c0,0,0.154,1.515,0.395,1.515c0.238,0,0.958,0.315,1.592,0.559c0.64,0.233,1.674-0.16,1.914-0.243
                        c0.238-0.08,1.993-1.035,1.993-1.035s1.035-0.715,1.352-0.637c0.318,0.08,1.757-0.158,1.991,0c0.24,0.16,2.072,0.08,2.072,0.08
                        l1.113-1.193l3.03-1.356l1.516-0.16l3.659-1.034l3.108,0.317c0,0,2.632,1.915,2.632,1.755c0-0.158,0.557,1.037,0.557,1.037
                        l-0.158,1.51c0,0,0.874,0.717,0.952,0.479c0.082-0.24,0.96-1.195,1.2-1.434c0.233-0.238,0.957-0.555,1.515-0.953
                        c0.554-0.4,0.712-0.639,0.712-0.639s-0.555,1.592-0.797,1.592c-0.238,0-0.72,0.477-0.958,0.797c-0.238,0.316-0.632,0.56-0.632,0.72
                        c0,0.155,0.477,0.155,0.71,0c0.243-0.16,0.642-0.642,0.965-0.802c0.315-0.158,0.479-0.078,0.394,0.32
                        c-0.078,0.398-0.078,0.793-0.394,0.953c-0.323,0.16-0.722,0.398-1.281,0.72c-0.552,0.32-0.952,0.077-1.193,0.32
                        c-0.24,0.24,0.158,0.481,0.318,0.637c0.16,0.16,0.562,0.64,0.875,0.082c0.316-0.559,0.724-0.962,0.958-1.117
                        c0.238-0.156,0.717-0.642,0.717-0.243s0.243,0.802,0.318,1.123c0.083,0.315-0.555,0.952-0.479,1.11
                        c0.082,0.16,0.882,1.913,0.882,1.913s0.477,0.633,1.031,0.633c0.559,0,1.75,0.402,1.992,0.485c0.234,0.075,1.356,0,1.517-0.321
                        c0.16-0.32,1.113-0.957,1.035-0.719c-0.082,0.24,0.078,0.719,0.316,0.957s0.637,0.88,0.637,0.88l2.949-2.315
                        c0,0,2.229-0.479,2.308-0.238c0.082,0.238,1.512-1.59,1.512-1.59l4.54-5.576l1.76-1.198l1.272-1.833l1.75-3.191l0.957-3.576
                        l0.718-2.71l-1.753-2.633L398.728,158.973z M381.04,188.691c0,0-1.113-0.717-1.277-0.955v-0.24l-0.793,2.467l-0.715,2.633
                        c0,0,1.43,0.16,1.59,0.238c0.16,0.077,2.552-1.353,2.634-1.673c0.078-0.32,1.672-2.948,1.672-2.948S381.604,188.77,381.04,188.691z"/>
    <path fill="red" d="M424.222,184.072l-0.798-0.802c0,0,0.083-1.113-0.16-1.113c-0.235,0-0.637,0.08-0.637,0.08l0.401-2.792l-1.441-0.873l-0.314,4.302
                        l-1.038,2.395l-2.066,0.797c0,0,0.875,0.873,1.193,0.873c0.316,0-0.24,0.956-0.24,0.956l-1.354,1.196c0,0-0.475-0.241-0.475-0.878
                        c0-0.639-1.278,0.637-1.278,0.637l-0.875-0.559l-2.392,2.068l-3.265,1.677l-7.646,4.703l1.033,0.557c0,0,0.956,0.398,1.036,0.559
                        c0.077,0.156,2.389-1.037,2.389-1.037l2.631-1.915l1.27-1.113c0,0,2.315-0.637,2.233-0.318c-0.076,0.318,0.717-1.513,0.717-1.513
                        l2.231-1.195l1.356-1.352l1.113,0.313l1.594-0.557l2.709-1.751l0.477-1.437l0.88,0.085l1.668-1.198l1.115-1.912L424.222,184.072z"/>
    <path fill="red" d="M103.167,9.364c0.637,0.234,1.034,0.317,2.391,0.397c1.355,0.076,1.515-0.08,2.151,0.157c0.632,0.236,1.192,0.643,1.433,0.077
                        c0.238-0.554,0.557-0.554,0.795-0.874c0.238-0.318,0-0.637,0.397-0.796c0.398-0.158,1.117,0.639,1.117,0.639
                        s-0.878,0.558-0.48,0.634c0.397,0.083,1.513,0.32,2.074,0.397c0.558,0.083,0.08,0.239,1.036,0.327
                        c0.954,0.075,1.353-0.088,2.546-0.088c1.196,0,1.917-0.553,2.314-0.397c0.397,0.158,1.75,0.158,2.147,0.081
                        c0.398-0.081,1.359-0.954,0.958-0.954s-1.913-0.401-2.549-0.479c-0.636-0.079-2.633-0.159-3.105,0.079
                        c-0.482,0.24-1.039,0.401-1.357,0.24c-0.318-0.159,1.357-1.432,2.47-1.274c1.117,0.159,2.788-0.158,3.345-0.079
                        s1.916,0.318,1.916,0.318s0.315-0.159,0.394-0.397c0.081-0.239,0.161-0.478,0.161-0.478l0.798,0.716c0,0,5.255-2.149,5.497-2.55
                        c0.239-0.402,3.58-1.435,4.065-1.352c0.477,0.076,3.74-1.356,4.302-1.118c0.55,0.239,3.501-0.713,3.501-0.713s2.154-0.48,2.632-0.48
                        c0.479,0,0.716-0.556,0-0.477c-0.719,0.079-6.696,0.079-8.126,0c-1.438-0.079-4.941-0.003-5.498,0.079
                        c-0.558,0.08-3.748,0.956-5.1,0.878c-1.356-0.081-5.735,0.554-5.973,0.475c-0.242-0.08-1.99-0.159-1.83-0.159
                        c0.155,0-2.315,1.992-2.713,1.432c-0.397-0.557,0-0.955-0.397-0.557C114.082,3.466,114.16,5.3,114.16,5.3
                        c0.477,0.32,1.513,1.434,2.232,0.957c0.713-0.479,1.113-0.239,1.352-0.162c0.236,0.081-1.113,1.117-1.913,1.117
                        c-0.796,0-3.347,0.956-3.347,0.956s-1.116-1.036-1.355-1.115c-0.238-0.08-1.59-0.159-1.829-0.159c-0.238,0-0.558-0.238-0.637,0.478
                        c-0.079,0.716,0.079,1.83-0.716,1.671c-0.798-0.16-1.035,0.158-1.435-0.078c-0.398-0.24,0.56-1.435-0.561-1.514
                        c-1.115-0.079-1.751-0.875-2.388,0.397C102.925,9.121,102.532,9.121,103.167,9.364z M74.329,14.299
                        c-0.242,0.402,2.067,0.56,2.225,0.243c0.167-0.322,1.598-0.083,1.915-0.558c0.318-0.479,1.909-1.436,2.148-1.277
                        c0.239,0.161-0.477,0.956-0.716,1.037c-0.239,0.079,0.801,0.157-0.239,0.958c-1.033,0.795-0.794,1.514-0.794,1.514
                        s-0.876,0.397-0.239,0.557s1.831,0.716,1.831,0.716s0.079,0.557,0.079,0.717c0,0.159,0.401,0.637,1.273,0.08
                        c0.882-0.558,2.632-1.193,2.871-0.955c0.238,0.238,0.798-0.08,1.597-0.16c0.793-0.078,1.433-0.318,1.433-0.318l1.034,0.16
                        c0.479,0.238,0.879-0.318,1.679,0.158c0.792,0.478,1.905,0.478,1.905,0.478s1.118-0.875,1.355-0.954
                        c0.24-0.08,0.717-0.159,0.478-0.717c-0.238-0.559-1.114-1.434-0.875-1.598c0.238-0.158,0.795-0.318,0.716-1.83
                        c-0.079-1.512,0.159-1.271-0.239-1.193c-0.397,0.08-1.355,0.558-1.355,0.558l-0.316-0.08c-0.158,0.477-0.877,0.796-1.041,1.274
                        c-0.158,0.477-0.628,0.716-0.628,0.318c0-0.398-0.56-0.479-0.645-0.797c-0.074-0.319-0.795-0.238-1.192-0.159
                        c-0.399,0.079-1.516-0.717-1.915-0.398c-0.394,0.319-0.797-0.158-1.115-0.875c-0.315-0.716-0.716-1.277-1.194-1.2
                        c-0.478,0.083-3.425,0-3.425,0l-1.753,0.159c0,0-0.954,0.243-0.954,0.723c0,0.478-0.16,0.797-0.637,0.955
                        c-0.481,0.159-3.985,1.433-3.985,1.433S74.568,13.9,74.329,14.299z M99.343,12.39l-0.876-0.16c0,0-0.079-0.637-0.317-0.637
                        c-0.247,0-0.958,0.876-0.958,0.876s1.038,0.398,1.197,0.717s0.556,0.715,0.556,0.957c0,0.235,2.628-0.798,2.628-0.798l1.438-0.717
                        c0,0,0.074,0.159,0.159-0.238c0.08-0.398-0.159-0.716,0-0.797c0.157-0.079,0.795-1.113,0.157-0.954c-0.638,0.156-1.994,0-2.63,0.238
                        c-0.637,0.239-1.431-0.316-1.352,0.318C99.422,11.832,99.343,12.39,99.343,12.39z M86.595,8.724c0,0,0.318,1.355,0.958,0.958
                        c0.636-0.402,2.466,0.958,2.466,1.113c0,0.164,0.636,0.083,0.636,0.083l2.792-0.959l1.558-0.237c0,0,1.47-0.083,1.707,0.08
                        c0.236,0.157,1.437-0.397,1.437-0.397l0.476-0.801l-1.037-0.318L97.83,7.45c0,0-0.321-0.478-1.035,0.079
                        c-0.722,0.558-2.711,1.671-2.553,1.435c0.16-0.24-0.794,0.078-1.193-0.401c-0.401-0.476-0.956-0.557-0.956-0.557
                        s-1.12-0.397-1.514-0.238c-0.4,0.159,0.716-0.796,0.716-0.796s0.239-0.877-0.243-0.796c-0.473,0.081-4.379,0.956-4.379,0.956
                        S85,8.087,84.683,7.847c-0.318-0.238-1.512,0.159-1.512,0.159l0.796,0.478C84.205,8.245,86.595,8.724,86.595,8.724z M104.361,5.459
                        c0.238,0.077,2.152,0.635,2.391,0.716c0.238,0.081,0.958,0.239,1.271,0.16c0.318-0.079,1.594-0.715,1.119-0.955
                        c-0.479-0.238-1.993-0.563-2.312-0.724c-0.318-0.158-1.515-0.233-1.515-0.233l-0.717,0.155
                        C104.441,4.817,104.123,5.381,104.361,5.459z M96.712,6.813c0.324-0.158,1.437-0.637,1.437-0.637L99.1,5.381l0.322-0.403
                        c0,0-0.716-0.633-1.035-0.399c-0.318,0.239-1.996,0.958-1.996,0.958l-0.079,0.558l-1.307,0.56
                        C95.005,6.655,96.391,6.972,96.712,6.813z M111.055,6.575c0.314,0.08,1.271,0.08,1.351-0.16c0.079-0.239-0.079-1.916-0.079-1.916
                        s-0.322-0.474-0.718-0.395c-0.398,0.079-1.671,0.713-1.671,0.713C109.857,5.059,110.733,6.495,111.055,6.575z M90.934,91.475
                        c-0.055-0.177-0.954-0.47-1.431-0.47c-0.478,0-2.212-1.678-2.328-2.037c-0.124-0.359-4.004-1.312-4.004-1.312
                        s-4.243-0.24-4.243-0.357c0-0.125-2.033,1.612-2.033,1.612v0.178c0,0,0.175,0.835,0.243,1.015c0.056,0.178,1.372-0.958,1.491-1.434
                        s1.074-0.599,1.312-0.719c0.243-0.116,0.358,0.483,0.598,0.483c0.242,0,1.317,0.356,1.317,0.356l2.151,0.717l0.836,0.775
                        c0,0,0.357,1.908,0.357,2.151c0,0.241,1.614,0.116,1.614,0.116l3.166-0.292C89.979,92.256,90.998,91.655,90.934,91.475z"/>
  </symbol>

  <filter id="dropShadow">
    <feGaussianBlur in="SourceAlpha" stdDeviation="5" />
    <feOffset dx="3" dy="3" />
    <feMerge>
      <feMergeNode />
      <feMergeNode in="SourceGraphic" />
    </feMerge>
  </filter>

  <use xlink:href="#map" stroke="#07f" stroke-width="10" filter="url(#dropShadow)"/>
  <use xlink:href="#map"/>
</svg>
